<svg id="visual" viewBox="0 0 1200 900" width="1200" height="900" xmlns="http://www.w3.org/2000/svg" xmlns:xlink="http://www.w3.org/1999/xlink" version="1.1"><g stroke-width="2" stroke-linejoin="bevel"><path d="M546.3 504.3L493.3 412.7L381 529.3Z" fill="#19435d" stroke="#FFFFFF"></path><path d="M381 529.3L438 626.9L546.3 504.3Z" fill="#297ea6" stroke="#FFFFFF"></path><path d="M493.3 412.7L385 367.7L381 529.3Z" fill="#277297" stroke="#FFFFFF"></path><path d="M438 626.9L504.3 636.9L546.3 504.3Z" fill="#1d4e6b" stroke="#FFFFFF"></path><path d="M230.7 513.3L299.7 608.9L381 529.3Z" fill="#0c2435" stroke="#FFFFFF"></path><path d="M381 529.3L299.7 608.9L438 626.9Z" fill="#112e42" stroke="#FFFFFF"></path><path d="M438 626.9L495.3 734.4L504.3 636.9Z" fill="#19435d" stroke="#FFFFFF"></path><path d="M504.3 636.9L629.7 621.9L546.3 504.3Z" fill="#15384f" stroke="#FFFFFF"></path><path d="M546.3 504.3L659.7 384.7L493.3 412.7Z" fill="#246688" stroke="#FFFFFF"></path><path d="M629.7 621.9L678.7 484.3L546.3 504.3Z" fill="#277297" stroke="#FFFFFF"></path><path d="M493.3 412.7L407 275.1L385 367.7Z" fill="#00101c" stroke="#FFFFFF"></path><path d="M547.3 251.1L407 275.1L493.3 412.7Z" fill="#0c2435" stroke="#FFFFFF"></path><path d="M385 367.7L252.7 398.7L381 529.3Z" fill="#00101c" stroke="#FFFFFF"></path><path d="M678.7 484.3L659.7 384.7L546.3 504.3Z" fill="#277297" stroke="#FFFFFF"></path><path d="M280.7 245.1L252.7 398.7L385 367.7Z" fill="#15384f" stroke="#FFFFFF"></path><path d="M252.7 398.7L230.7 513.3L381 529.3Z" fill="#246688" stroke="#FFFFFF"></path><path d="M406 748.4L495.3 734.4L438 626.9Z" fill="#081a28" stroke="#FFFFFF"></path><path d="M504.3 636.9L495.3 734.4L629.7 621.9Z" fill="#112e42" stroke="#FFFFFF"></path><path d="M659.7 384.7L547.3 251.1L493.3 412.7Z" fill="#00101c" stroke="#FFFFFF"></path><path d="M299.7 608.9L406 748.4L438 626.9Z" fill="#081a28" stroke="#FFFFFF"></path><path d="M289.7 114.6L280.7 245.1L407 275.1Z" fill="#1d4e6b" stroke="#FFFFFF"></path><path d="M407 275.1L280.7 245.1L385 367.7Z" fill="#277297" stroke="#FFFFFF"></path><path d="M147.3 401.7L152.3 532.3L230.7 513.3Z" fill="#00101c" stroke="#FFFFFF"></path><path d="M230.7 513.3L152.3 532.3L299.7 608.9Z" fill="#205a7a" stroke="#FFFFFF"></path><path d="M299.7 608.9L282.7 774.4L406 748.4Z" fill="#112e42" stroke="#FFFFFF"></path><path d="M147.3 401.7L230.7 513.3L252.7 398.7Z" fill="#0c2435" stroke="#FFFFFF"></path><path d="M784 352.7L664.7 257.1L659.7 384.7Z" fill="#297ea6" stroke="#FFFFFF"></path><path d="M659.7 384.7L664.7 257.1L547.3 251.1Z" fill="#19435d" stroke="#FFFFFF"></path><path d="M495.3 734.4L640.7 756.4L629.7 621.9Z" fill="#081a28" stroke="#FFFFFF"></path><path d="M629.7 621.9L793 625.9L678.7 484.3Z" fill="#205a7a" stroke="#FFFFFF"></path><path d="M549.3 900L640.7 756.4L495.3 734.4Z" fill="#112e42" stroke="#FFFFFF"></path><path d="M150.3 262.1L147.3 401.7L252.7 398.7Z" fill="#0c2435" stroke="#FFFFFF"></path><path d="M130.3 762.4L282.7 774.4L299.7 608.9Z" fill="#081a28" stroke="#FFFFFF"></path><path d="M406 748.4L420 900L495.3 734.4Z" fill="#081a28" stroke="#FFFFFF"></path><path d="M678.7 484.3L784 352.7L659.7 384.7Z" fill="#112e42" stroke="#FFFFFF"></path><path d="M839 517.3L784 352.7L678.7 484.3Z" fill="#19435d" stroke="#FFFFFF"></path><path d="M652.7 136.6L534.3 144.6L547.3 251.1Z" fill="#246688" stroke="#FFFFFF"></path><path d="M547.3 251.1L534.3 144.6L407 275.1Z" fill="#297ea6" stroke="#FFFFFF"></path><path d="M652.7 136.6L547.3 251.1L664.7 257.1Z" fill="#112e42" stroke="#FFFFFF"></path><path d="M782 737.4L793 625.9L629.7 621.9Z" fill="#081a28" stroke="#FFFFFF"></path><path d="M793 625.9L839 517.3L678.7 484.3Z" fill="#277297" stroke="#FFFFFF"></path><path d="M0 492.3L105.3 634.9L152.3 532.3Z" fill="#297ea6" stroke="#FFFFFF"></path><path d="M152.3 532.3L105.3 634.9L299.7 608.9Z" fill="#00101c" stroke="#FFFFFF"></path><path d="M908.3 359.7L769 262.1L784 352.7Z" fill="#277297" stroke="#FFFFFF"></path><path d="M784 352.7L769 262.1L664.7 257.1Z" fill="#112e42" stroke="#FFFFFF"></path><path d="M280.7 245.1L150.3 262.1L252.7 398.7Z" fill="#19435d" stroke="#FFFFFF"></path><path d="M147.3 401.7L0 492.3L152.3 532.3Z" fill="#00101c" stroke="#FFFFFF"></path><path d="M289.7 114.6L150.3 262.1L280.7 245.1Z" fill="#1d4e6b" stroke="#FFFFFF"></path><path d="M534.3 144.6L436 96.6L407 275.1Z" fill="#081a28" stroke="#FFFFFF"></path><path d="M640.7 756.4L782 737.4L629.7 621.9Z" fill="#205a7a" stroke="#FFFFFF"></path><path d="M910.3 609.9L911.3 553.3L839 517.3Z" fill="#112e42" stroke="#FFFFFF"></path><path d="M769 262.1L652.7 136.6L664.7 257.1Z" fill="#205a7a" stroke="#FFFFFF"></path><path d="M534.3 144.6L530.3 0L436 96.6Z" fill="#0c2435" stroke="#FFFFFF"></path><path d="M278.7 900L420 900L282.7 774.4Z" fill="#00101c" stroke="#FFFFFF"></path><path d="M282.7 774.4L420 900L406 748.4Z" fill="#1d4e6b" stroke="#FFFFFF"></path><path d="M640.7 756.4L681.7 900L782 737.4Z" fill="#297ea6" stroke="#FFFFFF"></path><path d="M436 96.6L289.7 114.6L407 275.1Z" fill="#205a7a" stroke="#FFFFFF"></path><path d="M420 900L549.3 900L495.3 734.4Z" fill="#1d4e6b" stroke="#FFFFFF"></path><path d="M105.3 634.9L130.3 762.4L299.7 608.9Z" fill="#081a28" stroke="#FFFFFF"></path><path d="M130.3 762.4L278.7 900L282.7 774.4Z" fill="#277297" stroke="#FFFFFF"></path><path d="M910.3 609.9L839 517.3L793 625.9Z" fill="#1d4e6b" stroke="#FFFFFF"></path><path d="M839 517.3L908.3 359.7L784 352.7Z" fill="#0c2435" stroke="#FFFFFF"></path><path d="M0 415.7L0 492.3L147.3 401.7Z" fill="#00101c" stroke="#FFFFFF"></path><path d="M105.3 634.9L0 666.9L130.3 762.4Z" fill="#00101c" stroke="#FFFFFF"></path><path d="M549.3 900L681.7 900L640.7 756.4Z" fill="#081a28" stroke="#FFFFFF"></path><path d="M915.3 741.4L910.3 609.9L793 625.9Z" fill="#00101c" stroke="#FFFFFF"></path><path d="M915.3 741.4L793 625.9L782 737.4Z" fill="#00101c" stroke="#FFFFFF"></path><path d="M0 293.1L147.3 401.7L150.3 262.1Z" fill="#15384f" stroke="#FFFFFF"></path><path d="M0 293.1L0 415.7L147.3 401.7Z" fill="#297ea6" stroke="#FFFFFF"></path><path d="M911.3 553.3L908.3 359.7L839 517.3Z" fill="#0c2435" stroke="#FFFFFF"></path><path d="M769 262.1L780 106.6L652.7 136.6Z" fill="#1d4e6b" stroke="#FFFFFF"></path><path d="M0 492.3L0 666.9L105.3 634.9Z" fill="#112e42" stroke="#FFFFFF"></path><path d="M130.3 762.4L113.3 900L278.7 900Z" fill="#1d4e6b" stroke="#FFFFFF"></path><path d="M652.7 136.6L530.3 0L534.3 144.6Z" fill="#00101c" stroke="#FFFFFF"></path><path d="M436 96.6L363 0L289.7 114.6Z" fill="#205a7a" stroke="#FFFFFF"></path><path d="M663.7 0L530.3 0L652.7 136.6Z" fill="#00101c" stroke="#FFFFFF"></path><path d="M107.3 127.6L0 293.1L150.3 262.1Z" fill="#15384f" stroke="#FFFFFF"></path><path d="M896.3 153.6L780 106.6L769 262.1Z" fill="#1d4e6b" stroke="#FFFFFF"></path><path d="M530.3 0L363 0L436 96.6Z" fill="#1d4e6b" stroke="#FFFFFF"></path><path d="M289.7 114.6L107.3 127.6L150.3 262.1Z" fill="#205a7a" stroke="#FFFFFF"></path><path d="M137.3 0L107.3 127.6L289.7 114.6Z" fill="#0c2435" stroke="#FFFFFF"></path><path d="M826 900L915.3 741.4L782 737.4Z" fill="#081a28" stroke="#FFFFFF"></path><path d="M1042.7 546.3L908.3 359.7L911.3 553.3Z" fill="#081a28" stroke="#FFFFFF"></path><path d="M1040.7 276.1L962.3 275.1L1075.7 376.7Z" fill="#297ea6" stroke="#FFFFFF"></path><path d="M363 0L269.7 0L289.7 114.6Z" fill="#246688" stroke="#FFFFFF"></path><path d="M780 106.6L663.7 0L652.7 136.6Z" fill="#1d4e6b" stroke="#FFFFFF"></path><path d="M0 775.4L113.3 900L130.3 762.4Z" fill="#277297" stroke="#FFFFFF"></path><path d="M0 666.9L0 775.4L130.3 762.4Z" fill="#0c2435" stroke="#FFFFFF"></path><path d="M681.7 900L826 900L782 737.4Z" fill="#081a28" stroke="#FFFFFF"></path><path d="M908.3 359.7L962.3 275.1L769 262.1Z" fill="#1d4e6b" stroke="#FFFFFF"></path><path d="M1042.7 546.3L911.3 553.3L910.3 609.9Z" fill="#112e42" stroke="#FFFFFF"></path><path d="M962.3 275.1L896.3 153.6L769 262.1Z" fill="#246688" stroke="#FFFFFF"></path><path d="M780 106.6L762 0L663.7 0Z" fill="#00101c" stroke="#FFFFFF"></path><path d="M938.3 0L762 0L780 106.6Z" fill="#00101c" stroke="#FFFFFF"></path><path d="M1049.7 622.9L910.3 609.9L915.3 741.4Z" fill="#19435d" stroke="#FFFFFF"></path><path d="M1049.7 622.9L1042.7 546.3L910.3 609.9Z" fill="#19435d" stroke="#FFFFFF"></path><path d="M269.7 0L137.3 0L289.7 114.6Z" fill="#15384f" stroke="#FFFFFF"></path><path d="M107.3 127.6L0 99.6L0 293.1Z" fill="#1d4e6b" stroke="#FFFFFF"></path><path d="M826 900L901.3 900L915.3 741.4Z" fill="#15384f" stroke="#FFFFFF"></path><path d="M1069.7 752.4L1049.7 622.9L915.3 741.4Z" fill="#112e42" stroke="#FFFFFF"></path><path d="M137.3 0L0 99.6L107.3 127.6Z" fill="#00101c" stroke="#FFFFFF"></path><path d="M0 775.4L0 900L113.3 900Z" fill="#1d4e6b" stroke="#FFFFFF"></path><path d="M962.3 275.1L1062.7 155.6L896.3 153.6Z" fill="#297ea6" stroke="#FFFFFF"></path><path d="M896.3 153.6L938.3 0L780 106.6Z" fill="#15384f" stroke="#FFFFFF"></path><path d="M1075.7 376.7L962.3 275.1L908.3 359.7Z" fill="#081a28" stroke="#FFFFFF"></path><path d="M1075.7 376.7L908.3 359.7L1042.7 546.3Z" fill="#1d4e6b" stroke="#FFFFFF"></path><path d="M1200 543.3L1075.7 376.7L1042.7 546.3Z" fill="#00101c" stroke="#FFFFFF"></path><path d="M1040.7 900L1069.7 752.4L915.3 741.4Z" fill="#1d4e6b" stroke="#FFFFFF"></path><path d="M1049.7 622.9L1200 543.3L1042.7 546.3Z" fill="#246688" stroke="#FFFFFF"></path><path d="M137.3 0L0 0L0 99.6Z" fill="#0c2435" stroke="#FFFFFF"></path><path d="M1062.7 155.6L938.3 0L896.3 153.6Z" fill="#277297" stroke="#FFFFFF"></path><path d="M1200 229.1L1062.7 155.6L1040.7 276.1Z" fill="#1d4e6b" stroke="#FFFFFF"></path><path d="M1040.7 276.1L1062.7 155.6L962.3 275.1Z" fill="#277297" stroke="#FFFFFF"></path><path d="M901.3 900L1040.7 900L915.3 741.4Z" fill="#205a7a" stroke="#FFFFFF"></path><path d="M1200 624.9L1200 543.3L1049.7 622.9Z" fill="#246688" stroke="#FFFFFF"></path><path d="M1075.7 376.7L1200 229.1L1040.7 276.1Z" fill="#246688" stroke="#FFFFFF"></path><path d="M1200 624.9L1049.7 622.9L1069.7 752.4Z" fill="#277297" stroke="#FFFFFF"></path><path d="M1200 543.3L1200 377.7L1075.7 376.7Z" fill="#081a28" stroke="#FFFFFF"></path><path d="M1200 784.4L1200 624.9L1069.7 752.4Z" fill="#15384f" stroke="#FFFFFF"></path><path d="M1200 113.6L1048.7 0L1062.7 155.6Z" fill="#15384f" stroke="#FFFFFF"></path><path d="M1062.7 155.6L1048.7 0L938.3 0Z" fill="#246688" stroke="#FFFFFF"></path><path d="M1200 377.7L1200 229.1L1075.7 376.7Z" fill="#00101c" stroke="#FFFFFF"></path><path d="M1040.7 900L1200 784.4L1069.7 752.4Z" fill="#297ea6" stroke="#FFFFFF"></path><path d="M1200 229.1L1200 113.6L1062.7 155.6Z" fill="#246688" stroke="#FFFFFF"></path><path d="M1040.7 900L1200 900L1200 784.4Z" fill="#15384f" stroke="#FFFFFF"></path><path d="M1200 113.6L1200 0L1048.7 0Z" fill="#277297" stroke="#FFFFFF"></path></g></svg>